<svg width="275" height="275" viewBox="0 0 275 275" fill="none" xmlns="http://www.w3.org/2000/svg">
<g opacity="0.99">
<path d="M93.7474 122.635C93.7474 122.635 93.7479 93.215 93.7474 75.563C93.747 54.3779 111.244 34.375 137.497 34.375C163.751 34.375 181.246 54.3779 181.246 75.563C181.246 93.215 181.246 122.635 181.246 122.635" stroke="#484951" stroke-width="8.34345" stroke-linecap="round" stroke-linejoin="round"/>
<path fill-rule="evenodd" clip-rule="evenodd" d="M51.5631 130.547C51.5626 150.47 51.5619 192.088 51.5633 219.986C51.5648 250.836 99.2722 257.813 137.501 257.813C175.73 257.813 223.438 250.836 223.438 219.986V130.547C223.438 124.219 218.308 119.117 211.979 119.117H63.0213C56.6932 119.117 51.5632 124.219 51.5631 130.547ZM120.313 183.365C120.313 188.82 122.683 193.72 126.451 197.093V214.877C126.451 221.204 131.581 226.335 137.909 226.335H139.546C145.875 226.335 151.005 221.204 151.005 214.877V197.093C154.772 193.72 157.143 188.82 157.143 183.365C157.143 173.195 148.899 164.951 138.728 164.951C128.557 164.951 120.313 173.195 120.313 183.365Z" fill="#484951"/>
</g>
</svg>
