<svg width="95" height="95" viewBox="0 0 95 95" fill="none" xmlns="http://www.w3.org/2000/svg">
<path d="M47.5 87.0833C69.3612 87.0833 87.0833 69.3613 87.0833 47.5C87.0833 25.6387 69.3612 7.91667 47.5 7.91667C25.6387 7.91667 7.91663 25.6387 7.91663 47.5C7.91663 69.3613 25.6387 87.0833 47.5 87.0833Z" fill="#303136"/>
<path opacity="0.99" d="M47.5 67.2917C46.879 67.2991 46.2663 67.1493 45.7187 66.8563C44.7864 66.3817 44.0799 65.5574 43.7536 64.5635C43.4272 63.5696 43.5076 62.4869 43.9771 61.5521L49.0042 51.4583H39.5833C38.9086 51.4563 38.2455 51.2818 37.6572 50.9514C37.0689 50.621 36.5747 50.1457 36.2218 49.5707C35.8688 48.9956 35.6687 48.3398 35.6404 47.6657C35.6122 46.9915 35.7568 46.3213 36.0604 45.7188L43.9771 29.8854C44.4924 29.029 45.3126 28.3993 46.273 28.1226C47.2334 27.8459 48.2629 27.9428 49.1548 28.3938C50.0467 28.8448 50.7351 29.6165 51.0816 30.5539C51.4281 31.4914 51.4071 32.5253 51.0229 33.4479L45.9958 43.5417H55.4167C56.0914 43.5437 56.7544 43.7182 57.3428 44.0486C57.9311 44.379 58.4252 44.8543 58.7782 45.4293C59.1312 46.0044 59.3313 46.6602 59.3595 47.3343C59.3878 48.0085 59.2432 48.6787 58.9396 49.2812L51.0229 65.1146C50.694 65.7674 50.1907 66.3163 49.5689 66.7006C48.947 67.0849 48.231 67.2895 47.5 67.2917Z" fill="#484951"/>
</svg>
